<svg width="28" height="27" viewBox="0 0 28 27" fill="none" xmlns="http://www.w3.org/2000/svg">
<path d="M12 5.84627V0.947655C12 0.423013 11.5957 -0.00763013 11.0711 0.00317124C9.08279 0.0441162 4.43804 0.527087 2.49971 4.01655C6.37884e-05 8.51652 0 14.0164 0 14.0165V25.0165C0 25.5688 0.447715 26.0165 1 26.0165H11C11.5523 26.0165 12 25.5688 12 25.0165V15.0165C12 14.4642 11.5523 14.0165 11 14.0165H8.06888C7.49042 14.0165 7.03798 13.5275 7.11497 12.9542C7.24398 11.9934 7.50376 10.505 7.99981 9.01656C8.49988 7.51609 9.84064 7.09628 10.8328 7.00045C11.4444 6.94137 12 6.46075 12 5.84627Z" fill="#5551FF"/>
<path d="M27.9998 5.84627V0.947655C27.9998 0.423013 27.5954 -0.00763013 27.0709 0.00317124C25.0825 0.0441162 20.4378 0.527087 18.4995 4.01655C15.9998 8.51652 15.9998 14.0164 15.9998 14.0165V25.0165C15.9998 25.5688 16.4475 26.0165 16.9998 26.0165H26.9998C27.552 26.0165 27.9998 25.5688 27.9998 25.0165V15.0165C27.9998 14.4642 27.552 14.0165 26.9998 14.0165H24.0686C23.4902 14.0165 23.0377 13.5275 23.1147 12.9542C23.2437 11.9934 23.5035 10.505 23.9996 9.01656C24.4996 7.51609 25.8404 7.09628 26.8326 7.00045C27.4442 6.94137 27.9998 6.46075 27.9998 5.84627Z" fill="#5551FF"/>
</svg>
