<svg width="240" height="240" viewBox="0 0 240 240" fill="none" xmlns="http://www.w3.org/2000/svg">
<path d="M137 31.5306C169.298 9.53061 201 37.0306 201 37.0306C214.01 34.415 220.468 31.8619 231 26.0306C229.084 37.8192 223.192 43.5416 211.5 53.5306C223.326 51.4436 229.329 49.7945 239 46.0306C230.308 58.559 224.772 63.6382 214.5 71.5306C214.319 113.302 206.462 132.924 184.5 164.031C149.416 203.25 125.142 214.745 74 217.531C39.0394 214.367 22.2643 210.133 1 195.031C30.7681 196.423 46.0769 192.352 70.5 175.031C49.226 170.245 37.339 167.47 26 140.031C34.0056 142.188 38.4943 142.035 46.5 140.031C16.909 125.195 7.29817 114.895 9.5 91.0306C16.3711 94.7423 20.6062 96.4311 31 96.5306C7.57853 73.7724 2.42239 59.8465 17 31.5306C51.2238 70.0201 74.3172 78.059 118.5 82.0306C118.5 82.0306 104.702 53.5306 137 31.5306Z" fill="white"/>
</svg>
